PathFileType	4	(X/Y/Z)	C:\Users\Basilio\Documents\Thesis Gigler\squatting_fais\c3dfiles\075\SLS_front_pre1\markers_experimental.trc
DataRate	CameraRate	NumFrames	NumMarkers	Units	OrigDataRate	OrigDataStartFrame	OrigNumFrames
200.000000	200.000000	4	61	mm	200.000000	624	1249
Frame#	Time	FHD			LBHD			C7			T10			CLAV			LSHO			LUUPA			LMUPA			LDUPA			LLEP			LMEP			LUL			LRFIN			RSHO			RUPA1			RMUPA			RDUPA			RLEP			RMEP			RRAD			RUL			RUFIN			LASI			RASI			USACR			LSACR			RSACR			LTHI1			LTHI2			LTHI3			LTHI4			LLFC			LMFC			LTIB1			LTIB2			LTIB3			LTIB4			LLMAL			LMMAL			LHEE			LMT1			LMT2			LMT5			RTHI			RTHI2			RTHI3			RTHI4			RLFC			RMFC			RTIB1			RTIB2			RTIB3			RTIB4			RLMAL			RMMAL			RHEE			RMT1			RMT2			RMT5			LRAD			RBHD			
		X1	Y1	Z1	X2	Y2	Z2	X3	Y3	Z3	X4	Y4	Z4	X5	Y5	Z5	X6	Y6	Z6	X7	Y7	Z7	X8	Y8	Z8	X9	Y9	Z9	X10	Y10	Z10	X11	Y11	Z11	X12	Y12	Z12	X13	Y13	Z13	X14	Y14	Z14	X15	Y15	Z15	X16	Y16	Z16	X17	Y17	Z17	X18	Y18	Z18	X19	Y19	Z19	X20	Y20	Z20	X21	Y21	Z21	X22	Y22	Z22	X23	Y23	Z23	X24	Y24	Z24	X25	Y25	Z25	X26	Y26	Z26	X27	Y27	Z27	X28	Y28	Z28	X29	Y29	Z29	X30	Y30	Z30	X31	Y31	Z31	X32	Y32	Z32	X33	Y33	Z33	X34	Y34	Z34	X35	Y35	Z35	X36	Y36	Z36	X37	Y37	Z37	X38	Y38	Z38	X39	Y39	Z39	X40	Y40	Z40	X41	Y41	Z41	X42	Y42	Z42	X43	Y43	Z43	X44	Y44	Z44	X45	Y45	Z45	X46	Y46	Z46	X47	Y47	Z47	X48	Y48	Z48	X49	Y49	Z49	X50	Y50	Z50	X51	Y51	Z51	X52	Y52	Z52	X53	Y53	Z53	X54	Y54	Z54	X55	Y55	Z55	X56	Y56	Z56	X57	Y57	Z57	X58	Y58	Z58	X59	Y59	Z59	X60	Y60	Z60	X61	Y61	Z61	

625	3.12	-210.6168823242188	1402.382080078125	-776.9328613281252	-364.3098754882813	1304.614868164063	-859.7698364257815	-418.0247802734376	1212.13818359375	-801.6734619140627	-568.7775268554689	928.2749023437502	-793.0108642578127	-301.4425048828126	1111.721313476563	-789.798278808594	-305.8744812011719	1168.3046875	-922.6553344726565	-153.7160034179688	1102.258666992188	-1002.721557617188	-131.150619506836	1117.0556640625	-961.3743896484377	-85.84690856933595	1092.5869140625	-993.2056274414065	-7.090672969818117	1078.53515625	-972.4495239257815	-30.04413223266602	1005.15673828125	-934.810485839844	228.7762145996094	1081.220336914063	-863.6011962890627	232.4989471435547	1101.704956054688	-759.5422363281251	-325.9061584472657	1168.793090820313	-660.1005249023439	-197.3426666259766	1110.041381835938	-544.5429077148439	-162.5997009277344	1120.21728515625	-577.8356933593751	-128.4793701171875	1097.216552734375	-532.9360961914064	-57.77724075317384	1088.096435546875	-536.1923217773439	-54.7012062072754	1011.369812011719	-550.6776733398439	160.5213775634766	1085.89990234375	-708.3368530273439	180.5977783203125	1102.28076171875	-636.0534667968751	233.4025878906251	1124.4892578125	-734.4406127929689	-450.2145080566407	746.9110717773439	-929.234802246094	-445.3834228515626	737.5950927734376	-682.4663696289064	-601.1809082031251	797.4995117187502	-805.9532470703127	-610.5125732421876	767.3626708984376	-833.438659667969	-610.0652465820314	764.9125976562501	-778.199645996094	-352.9140014648438	590.9704589843751	-1022.379089355469	-269.1216430664063	576.3883666992189	-1023.831726074219	-248.7804260253907	615.5472412109376	-1000.893310546875	-238.4463348388672	525.5549316406251	-1021.549133300781	-158.9717254638672	451.8020019531251	-1012.8271484375	-119.8388366699219	472.2369384765626	-892.2307128906252	-34.8059196472168	399.4549865722657	-983.872009277344	-57.29298782348634	330.1416320800782	-1029.782348632813	-20.63186836242676	350.7010498046876	-1011.726928710938	27.06205558776856	286.6881713867188	-980.8350830078127	56.9108352661133	126.2324829101563	-996.7600708007815	71.58468627929689	160.1816711425782	-915.6409912109377	19.23463439941407	80.48571777343751	-950.8767700195315	214.6116180419922	149.4153900146485	-912.059753417969	223.1625976562501	145.8417053222657	-961.134948730469	200.2735900878907	102.6938705444336	-1006.001586914063	-401.5657653808595	570.5454711914064	-616.8719482421876	-335.4482116699219	568.4473266601564	-615.6580810546876	-319.9568176269532	597.6944580078126	-625.0554199218751	-287.6506958007813	499.5808715820314	-619.7799072265626	-192.8342895507813	399.806365966797	-653.5015869140626	-164.0289001464844	421.8613891601564	-774.841735839844	-187.4973907470703	277.9436035156251	-753.4451293945314	-269.4612731933594	222.1678619384766	-707.6991577148439	-241.7157440185547	209.7078247070313	-745.0538330078126	-271.5519714355469	186.7511596679688	-788.304626464844	-391.8288879394532	105.1386642456055	-768.8937988281252	-352.4738769531251	137.0242462158203	-845.7156372070315	-446.499481201172	93.56588745117189	-835.5417480468752	-242.361068725586	57.22936630249025	-822.0898437500002	-247.6029663085938	55.56784057617189	-779.5986328125002	-290.7891845703126	33.41748428344727	-733.4491577148439	nan	nan	nan	-333.3359680175782	1333.447509765625	-703.1332397460939	
626	3.125	-210.4713745117188	1401.7216796875	-776.8021240234377	-363.9085998535157	1304.393798828125	-859.6518554687502	-418.5990295410157	1212.0947265625	-801.4295043945315	-568.8452758789064	927.9340820312502	-793.1790161132815	-301.5421142578126	1111.135620117188	-789.9019775390627	-305.7911071777344	1167.83740234375	-922.733337402344	-153.5140838623047	1101.93798828125	-1002.651062011719	-130.9987487792969	1116.741455078125	-961.2718505859377	-85.73707580566408	1092.118041992188	-993.0587158203127	-6.920224666595461	1078.187622070313	-972.3611450195315	-29.73086547851563	1004.666259765625	-934.700866699219	228.819808959961	1080.71044921875	-863.5361328125002	231.7226715087891	1101.2451171875	-759.3479003906251	-325.9158020019532	1168.104736328125	-660.1861572265626	-197.4530181884766	1109.230102539063	-544.7101440429689	-162.6423950195313	1119.37841796875	-577.9847412109376	-128.5419921875	1096.406127929688	-532.9653930664064	-57.70974349975587	1087.44677734375	-536.2227783203126	-54.778377532959	1010.636291503906	-550.7540893554689	160.704818725586	1084.926635742188	-708.1538085937501	180.7226104736328	1101.480712890625	-636.0236816406251	233.4431304931641	1123.642944335938	-734.3271484375001	-450.360076904297	746.4923095703126	-929.415466308594	-445.4877319335939	737.1466064453126	-682.7780151367189	-601.2003173828126	797.1382446289065	-806.237731933594	-610.6303710937501	766.9409790039064	-833.6759033203127	-610.1884765625001	764.4758911132814	-778.4549560546877	-351.8318786621094	590.1353149414064	-1022.087036132813	-269.0578308105469	576.0961914062501	-1024.085327148438	-248.8104858398438	615.2441406250001	-1001.09765625	-237.7964477539063	525.0746459960939	-1021.432556152344	-158.7690887451172	451.6927490234376	-1012.972900390625	-119.7269821166992	472.222137451172	-892.3316650390627	-34.15959167480469	399.3685607910157	-983.597106933594	-57.04546356201173	330.1378173828126	-1029.732177734375	-20.45434188842774	350.7161865234376	-1011.726440429688	27.61399078369141	286.6555175781251	-980.5706787109377	57.41205215454103	126.3083419799805	-996.6399536132815	72.02684783935548	160.3355407714844	-915.571228027344	19.79783439636231	80.55856323242189	-950.819763183594	215.0061340332032	149.718505859375	-911.9550781250002	223.5759277343751	146.1760864257813	-960.960876464844	200.7697906494141	103.1032943725586	-1005.959411621094	-401.6560363769532	570.2890625000001	-617.1610107421876	-335.4074707031251	568.2899169921876	-615.8927001953126	-319.9946289062501	597.4913330078126	-625.3276977539064	-287.6420593261719	499.489715576172	-620.0960083007814	-192.7343750000001	399.7767333984376	-653.6471557617189	-163.9055480957032	421.7594299316407	-775.119079589844	-187.4029693603516	277.9298400878907	-753.7064819335939	-269.2981872558594	222.1665344238282	-707.8952636718751	-241.5830078125001	209.7359771728516	-745.2693481445314	-271.5952758789063	186.7601928710938	-788.4136352539065	-391.7582092285157	105.2144775390625	-769.0054931640627	-352.4658813476563	137.0465545654297	-845.8989257812502	-446.5057983398439	93.56975555419923	-835.6020507812502	-243.1339263916016	57.16695404052736	-822.613708496094	-247.7327117919922	55.99902725219728	-779.9731445312502	-290.7917175292969	33.43646621704102	-733.4622192382814	nan	nan	nan	-332.9717102050782	1333.136352539063	-703.0060424804689	
627	3.13	-210.2834472656251	1401.108520507813	-776.597839355469	-363.8091430664063	1304.0634765625	-859.6968383789065	-418.2390747070314	1211.375244140625	-801.689880371094	-568.9268188476564	927.6149902343752	-793.3609008789065	-301.4425048828126	1110.545654296875	-789.9072875976565	-305.6091003417969	1167.330078125	-922.7543945312502	-153.564453125	1101.612915039063	-1002.732116699219	-130.7559051513672	1116.380493164063	-961.0974731445315	-85.70626068115236	1091.693725585938	-993.0236816406252	-6.90294408798218	1077.721801757813	-972.0679931640627	-29.57957077026368	1004.2021484375	-934.8341064453127	228.8739013671876	1080.150024414063	-863.303894042969	232.7151336669922	1100.249389648438	-759.0822753906251	-326.0076904296876	1167.4326171875	-660.3074951171876	-197.3926239013672	1108.618774414063	-544.6865234375001	-162.7196197509766	1118.589965820313	-578.1159667968751	-128.5541229248047	1095.71728515625	-533.0942993164064	-57.72953414916994	1086.728637695313	-536.3430786132814	-54.91194152832033	1010.100036621094	-551.0874633789064	160.6510009765625	1084.208129882813	-707.9856567382814	180.6010284423828	1100.653564453125	-636.0259399414064	233.6184539794922	1122.9677734375	-734.2274780273439	-450.4872436523439	746.0460815429689	-929.6665649414065	-445.6246948242189	736.7333374023439	-682.9768676757814	-601.2070922851564	796.712585449219	-806.4763793945315	-610.7139282226564	766.4782714843751	-833.893005371094	-610.3723144531251	764.0510253906251	-778.7178955078127	-352.3780517578126	590.0330200195314	-1022.547668457031	-270.0647277832032	576.1086425781251	-1024.6240234375	-248.8759918212891	615.0109252929689	-1001.403137207031	-238.3917541503907	524.9749755859376	-1021.861511230469	-158.5796051025391	451.6231689453126	-1013.084167480469	-119.5761184692383	472.2393188476564	-892.4199829101565	-33.96991729736329	399.3480834960939	-983.6514282226565	-56.74562072753908	330.0740966796876	-1029.837890625	-20.26360702514649	350.6730346679688	-1011.73193359375	27.89013862609864	286.7583923339844	-980.5695800781252	57.79313278198244	126.3998413085938	-996.506774902344	72.44376373291017	160.4749450683594	-915.471618652344	20.28469276428223	80.61837005615236	-950.736267089844	215.4514770507813	150.1401977539063	-911.8108520507815	223.9715728759766	146.5142517089844	-960.9107055664065	201.2393341064454	103.455062866211	-1005.976379394531	-401.729217529297	569.9971313476564	-617.5228271484376	-335.4169921875001	568.0875244140626	-616.2031250000001	-320.0873107910157	597.3645629882814	-625.5959472656251	-287.5983581542969	499.3453369140626	-620.3697509765626	-192.5562744140626	399.7011108398439	-653.8877563476564	-163.9119567871094	421.6997070312501	-775.2906494140627	-187.2742614746094	277.8538513183594	-754.0264282226564	-269.0519409179688	222.1629180908204	-708.1458129882814	-240.9623260498047	209.5528717041016	-745.2321777343751	-271.4875488281251	186.7225952148438	-788.709167480469	-391.7305908203126	105.2088165283203	-769.1256103515627	-352.4705810546876	137.043701171875	-846.0677490234377	-446.5162048339845	93.57187652587892	-835.6860351562502	-243.1556854248047	57.09800720214845	-822.5366210937502	-247.6604309082032	55.98460388183595	-779.9522705078127	-290.7891845703126	33.46869659423829	-733.4962158203126	nan	nan	nan	-332.9091796875001	1332.715698242188	-703.0418701171876	
628	3.135	-210.0435028076172	1400.557250976563	-776.490661621094	-363.1950378417969	1302.958984375	-859.0484619140627	-418.196258544922	1210.956787109375	-801.6724853515627	-569.0272216796876	927.2908935546877	-793.505065917969	-301.2502441406251	1110.132934570313	-789.9547119140627	-305.4884338378907	1166.841796875	-922.7251586914065	-153.504379272461	1101.326538085938	-1002.609069824219	-130.5918121337891	1115.934448242188	-960.9754028320315	-85.65574645996095	1091.350830078125	-992.9055175781252	-6.831273078918459	1077.308837890625	-971.8640136718752	-29.54012870788575	1003.880676269531	-934.9136352539065	228.9330291748047	1079.623168945313	-863.2480468750002	232.8361816406251	1099.705078125	-759.0035400390626	-325.9066467285157	1166.916137695313	-660.2837524414064	-197.3859863281251	1108.028442382813	-544.8182373046876	-162.7589721679688	1118.051025390625	-578.0586547851564	-128.585433959961	1095.17529296875	-533.1594848632814	-57.76733398437501	1085.963134765625	-536.3859863281251	-54.95298004150392	1009.415466308594	-551.3375854492189	160.8976135253907	1083.206176757813	-707.3870849609376	180.5862731933594	1099.81591796875	-635.9814453125001	233.6866302490235	1122.210205078125	-734.0529174804689	-450.6700439453126	745.6149902343751	-929.8916015625002	-445.6678466796876	736.4219360351564	-683.0796508789064	-601.2847900390626	796.2525634765627	-806.6936035156252	-610.8411865234376	766.0297851562501	-834.2061157226565	-610.6027221679689	763.5922851562501	-778.9287109375002	-352.4486694335938	589.6644897460939	-1022.682922363281	-268.8651428222657	575.2344360351564	-1024.340698242188	-248.8396301269532	614.8179931640626	-1001.608947753906	-237.5709991455079	524.5363159179689	-1021.799926757813	-158.4649200439453	451.5588684082032	-1013.146911621094	-119.5138854980469	472.1526794433595	-892.509460449219	-33.81591796875001	399.3561401367189	-983.6734008789065	-56.51858139038087	329.9644470214844	-1029.834350585938	-20.06279182434082	350.6380310058594	-1011.66455078125	28.22571182250977	286.8134460449219	-980.4677734375002	58.43976974487306	126.3527374267578	-996.415466308594	72.81532287597658	160.657699584961	-915.356384277344	21.12319374084473	80.5668182373047	-950.4291992187502	215.8001708984376	150.4455871582032	-911.7231445312502	224.4479370117188	146.8616790771485	-960.764831542969	201.7461700439454	103.8084716796875	-1005.913146972656	-401.7215576171876	569.7677001953126	-617.8128662109376	-335.4381408691407	567.9205322265626	-616.4621582031251	-320.1177368164063	597.2236328125001	-625.8808593750001	-287.5332031250001	499.195037841797	-620.6575927734376	-192.4390106201172	399.6982421875001	-654.2259521484376	-163.823226928711	421.5735168457032	-775.5698242187502	-187.181381225586	277.8403930664063	-754.3248291015626	-268.9501037597657	222.2075500488282	-708.3888549804689	-241.4234313964844	209.6573181152344	-745.8840942382814	-271.6719970703126	186.7152709960938	-788.8029785156252	-391.6856384277345	105.3231582641602	-769.279235839844	-352.3844299316407	136.9172668457032	-846.2416992187502	-446.460906982422	93.56678771972658	-835.741882324219	-243.1952819824219	56.99565505981447	-822.5648193359377	-247.6309814453126	56.03152084350587	-779.9563598632815	-290.7345581054688	33.5430030822754	-733.5320434570314	nan	nan	nan	-332.3320312500001	1331.520751953125	-702.3843994140626	
